<svg width="24" height="24" viewBox="0 0 24 24" fill="none" xmlns="http://www.w3.org/2000/svg">
<path d="M9 21C7.9 21 6.95833 20.6084 6.175 19.825C5.39167 19.0417 5 18.1 5 17V8.82503C4.41667 8.60836 3.9375 8.24586 3.5625 7.73753C3.1875 7.2292 3 6.65003 3 6.00003C3 5.1667 3.29167 4.45836 3.875 3.87503C4.45833 3.2917 5.16667 3.00003 6 3.00003C6.83333 3.00003 7.54167 3.2917 8.125 3.87503C8.70833 4.45836 9 5.1667 9 6.00003C9 6.65003 8.8125 7.2292 8.4375 7.73753C8.0625 8.24586 7.58333 8.60836 7 8.82503V17C7 17.55 7.19583 18.0209 7.5875 18.4125C7.97917 18.8042 8.45 19 9 19C9.55 19 10.0208 18.8042 10.4125 18.4125C10.8042 18.0209 11 17.55 11 17V7.00003C11 5.90003 11.3917 4.95836 12.175 4.17503C12.9583 3.3917 13.9 3.00003 15 3.00003C16.1 3.00003 17.0417 3.3917 17.825 4.17503C18.6083 4.95836 19 5.90003 19 7.00003V15.175C19.5833 15.3917 20.0625 15.7542 20.4375 16.2625C20.8125 16.7709 21 17.35 21 18C21 18.8334 20.7083 19.5417 20.125 20.125C19.5417 20.7084 18.8333 21 18 21C17.1667 21 16.4583 20.7084 15.875 20.125C15.2917 19.5417 15 18.8334 15 18C15 17.35 15.1875 16.7667 15.5625 16.25C15.9375 15.7334 16.4167 15.375 17 15.175V7.00003C17 6.45003 16.8042 5.9792 16.4125 5.58753C16.0208 5.19586 15.55 5.00003 15 5.00003C14.45 5.00003 13.9792 5.19586 13.5875 5.58753C13.1958 5.9792 13 6.45003 13 7.00003V17C13 18.1 12.6083 19.0417 11.825 19.825C11.0417 20.6084 10.1 21 9 21ZM6 7.00003C6.28333 7.00003 6.52083 6.9042 6.7125 6.71253C6.90417 6.52086 7 6.28336 7 6.00003C7 5.7167 6.90417 5.4792 6.7125 5.28753C6.52083 5.09586 6.28333 5.00003 6 5.00003C5.71667 5.00003 5.47917 5.09586 5.2875 5.28753C5.09583 5.4792 5 5.7167 5 6.00003C5 6.28336 5.09583 6.52086 5.2875 6.71253C5.47917 6.9042 5.71667 7.00003 6 7.00003ZM18 19C18.2833 19 18.5208 18.9042 18.7125 18.7125C18.9042 18.5209 19 18.2834 19 18C19 17.7167 18.9042 17.4792 18.7125 17.2875C18.5208 17.0959 18.2833 17 18 17C17.7167 17 17.4792 17.0959 17.2875 17.2875C17.0958 17.4792 17 17.7167 17 18C17 18.2834 17.0958 18.5209 17.2875 18.7125C17.4792 18.9042 17.7167 19 18 19Z" fill="#303778"/>
<circle cx="17" cy="18" r="4" fill="#EE3F5F" stroke="white" stroke-width="2"/>
</svg>
