<svg width="24" height="24" viewBox="0 0 24 24" fill="none" xmlns="http://www.w3.org/2000/svg">
<path d="M10.95 18L16.6 12.35L15.15 10.9L10.925 15.125L8.825 13.025L7.4 14.45L10.95 18ZM6 22C5.45 22 4.97917 21.8042 4.5875 21.4125C4.19583 21.0209 4 20.55 4 20V4.00003C4 3.45003 4.19583 2.9792 4.5875 2.58753C4.97917 2.19586 5.45 2.00003 6 2.00003H14L20 8.00003V20C20 20.55 19.8042 21.0209 19.4125 21.4125C19.0208 21.8042 18.55 22 18 22H6ZM13 9.00003V4.00003H6V20H18V9.00003H13Z" fill="#303778"/>
</svg>
