<svg width="20" height="18" viewBox="0 0 20 18" fill="none" xmlns="http://www.w3.org/2000/svg">
<path d="M2 18C1.45 18 0.979167 17.8042 0.5875 17.4125C0.195833 17.0209 0 16.55 0 16V2.00003C0 1.45003 0.195833 0.979197 0.5875 0.587531C0.979167 0.195864 1.45 3.05176e-05 2 3.05176e-05H18C18.55 3.05176e-05 19.0208 0.195864 19.4125 0.587531C19.8042 0.979197 20 1.45003 20 2.00003V16C20 16.55 19.8042 17.0209 19.4125 17.4125C19.0208 17.8042 18.55 18 18 18H2ZM2 16H18V2.00003H2V16ZM3 14H8V12H3V14ZM12.55 12L17.5 7.05003L16.075 5.62503L12.55 9.17503L11.125 7.75003L9.725 9.17503L12.55 12ZM3 10H8V8.00003H3V10ZM3 6.00003H8V4.00003H3V6.00003Z" fill="#303778"/>
</svg>
