<svg width="16" height="16" viewBox="0 0 16 16" fill="none" xmlns="http://www.w3.org/2000/svg">
<g id="file-earmark-spreadsheet">
<path id="Union" d="M14 14.0001V4.50009L9.5 9.15527e-05H4C2.89543 9.15527e-05 2 0.895522 2 2.00009V14.0001C2 15.1047 2.89543 16.0001 4 16.0001H12C13.1046 16.0001 14 15.1047 14 14.0001ZM9.5 3.00009C9.5 3.82852 10.1716 4.50009 11 4.50009H13V9.00009H3V2.00009C3 1.44781 3.44772 1.00009 4 1.00009H9.5V3.00009ZM3 12.0001V10.0001H5V12.0001H3ZM3 13.0001H5V15.0001H4C3.44772 15.0001 3 14.5524 3 14.0001V13.0001ZM6 15.0001V13.0001H9V15.0001H6ZM10 15.0001V13.0001H13V14.0001C13 14.5524 12.5523 15.0001 12 15.0001H10ZM13 12.0001H10V10.0001H13V12.0001ZM6 12.0001V10.0001H9V12.0001H6Z" fill="white"/>
</g>
</svg>
