<svg width="18" height="20" viewBox="0 0 18 20" fill="none" xmlns="http://www.w3.org/2000/svg">
<path d="M2 20C1.45 20 0.979167 19.8042 0.5875 19.4125C0.195833 19.0209 0 18.55 0 18V4.00003C0 3.45003 0.195833 2.9792 0.5875 2.58753C0.979167 2.19586 1.45 2.00003 2 2.00003H6.2C6.41667 1.40003 6.77917 0.916697 7.2875 0.550031C7.79583 0.183364 8.36667 3.05176e-05 9 3.05176e-05C9.63333 3.05176e-05 10.2042 0.183364 10.7125 0.550031C11.2208 0.916697 11.5833 1.40003 11.8 2.00003H16C16.55 2.00003 17.0208 2.19586 17.4125 2.58753C17.8042 2.9792 18 3.45003 18 4.00003V18C18 18.55 17.8042 19.0209 17.4125 19.4125C17.0208 19.8042 16.55 20 16 20H2ZM2 18H16V4.00003H2V18ZM4 16H11V14H4V16ZM4 12H14V10H4V12ZM4 8.00003H14V6.00003H4V8.00003ZM9 3.25003C9.21667 3.25003 9.39583 3.1792 9.5375 3.03753C9.67917 2.89586 9.75 2.7167 9.75 2.50003C9.75 2.28336 9.67917 2.1042 9.5375 1.96253C9.39583 1.82086 9.21667 1.75003 9 1.75003C8.78333 1.75003 8.60417 1.82086 8.4625 1.96253C8.32083 2.1042 8.25 2.28336 8.25 2.50003C8.25 2.7167 8.32083 2.89586 8.4625 3.03753C8.60417 3.1792 8.78333 3.25003 9 3.25003Z" fill="#303778"/>
</svg>
