<svg width="20" height="20" viewBox="0 0 20 20" fill="none" xmlns="http://www.w3.org/2000/svg">
<path d="M12.5001 2.00003V5.00003C12.5001 5.55232 12.9478 6.00003 13.5001 6.00003H16.5001M7.00007 15V11M10.0001 15L10.0001 7.00003M13.0001 15V11M15.0001 3.50003C14.555 3.10182 14.0932 2.62951 13.8016 2.32276C13.6076 2.11864 13.3395 2.00003 13.0579 2.00003H5.49983C4.39527 2.00003 3.49984 2.89545 3.49983 4.00002L3.49976 16C3.49975 17.1045 4.39518 18 5.49975 18L14.4998 18C15.6043 18 16.4998 17.1046 16.4998 16.0001L16.5001 5.39822C16.5001 5.14252 16.4025 4.89673 16.2251 4.71264C15.8969 4.37224 15.3489 3.81213 15.0001 3.50003Z" stroke="#303778" stroke-width="2" stroke-linecap="round" stroke-linejoin="round"/>
</svg>
