<svg width="24" height="24" viewBox="0 0 24 24" fill="none" xmlns="http://www.w3.org/2000/svg">
<path d="M5.85 17.1C6.7 16.45 7.65 15.9375 8.7 15.5625C9.75 15.1875 10.85 15 12 15C13.15 15 14.25 15.1875 15.3 15.5625C16.35 15.9375 17.3 16.45 18.15 17.1C18.7333 16.4167 19.1875 15.6417 19.5125 14.775C19.8375 13.9084 20 12.9834 20 12C20 9.78336 19.2208 7.89586 17.6625 6.33753C16.1042 4.7792 14.2167 4.00003 12 4.00003C9.78333 4.00003 7.89583 4.7792 6.3375 6.33753C4.77917 7.89586 4 9.78336 4 12C4 12.9834 4.1625 13.9084 4.4875 14.775C4.8125 15.6417 5.26667 16.4167 5.85 17.1ZM12 13C11.0167 13 10.1875 12.6625 9.5125 11.9875C8.8375 11.3125 8.5 10.4834 8.5 9.50003C8.5 8.5167 8.8375 7.68753 9.5125 7.01253C10.1875 6.33753 11.0167 6.00003 12 6.00003C12.9833 6.00003 13.8125 6.33753 14.4875 7.01253C15.1625 7.68753 15.5 8.5167 15.5 9.50003C15.5 10.4834 15.1625 11.3125 14.4875 11.9875C13.8125 12.6625 12.9833 13 12 13ZM12 22C10.6167 22 9.31667 21.7375 8.1 21.2125C6.88333 20.6875 5.825 19.975 4.925 19.075C4.025 18.175 3.3125 17.1167 2.7875 15.9C2.2625 14.6834 2 13.3834 2 12C2 10.6167 2.2625 9.3167 2.7875 8.10003C3.3125 6.88336 4.025 5.82503 4.925 4.92503C5.825 4.02503 6.88333 3.31253 8.1 2.78753C9.31667 2.26253 10.6167 2.00003 12 2.00003C13.3833 2.00003 14.6833 2.26253 15.9 2.78753C17.1167 3.31253 18.175 4.02503 19.075 4.92503C19.975 5.82503 20.6875 6.88336 21.2125 8.10003C21.7375 9.3167 22 10.6167 22 12C22 13.3834 21.7375 14.6834 21.2125 15.9C20.6875 17.1167 19.975 18.175 19.075 19.075C18.175 19.975 17.1167 20.6875 15.9 21.2125C14.6833 21.7375 13.3833 22 12 22ZM12 20C12.8833 20 13.7167 19.8709 14.5 19.6125C15.2833 19.3542 16 18.9834 16.65 18.5C16 18.0167 15.2833 17.6459 14.5 17.3875C13.7167 17.1292 12.8833 17 12 17C11.1167 17 10.2833 17.1292 9.5 17.3875C8.71667 17.6459 8 18.0167 7.35 18.5C8 18.9834 8.71667 19.3542 9.5 19.6125C10.2833 19.8709 11.1167 20 12 20ZM12 11C12.4333 11 12.7917 10.8584 13.075 10.575C13.3583 10.2917 13.5 9.93336 13.5 9.50003C13.5 9.0667 13.3583 8.70836 13.075 8.42503C12.7917 8.1417 12.4333 8.00003 12 8.00003C11.5667 8.00003 11.2083 8.1417 10.925 8.42503C10.6417 8.70836 10.5 9.0667 10.5 9.50003C10.5 9.93336 10.6417 10.2917 10.925 10.575C11.2083 10.8584 11.5667 11 12 11Z" fill="#303778"/>
<circle cx="17" cy="17" r="4" fill="#EE3F5F" stroke="white" stroke-width="2"/>
</svg>
